<?xml version="1.0" standalone="no"?>
<!DOCTYPE svg PUBLIC "-//W3C//DTD SVG 20010904//EN"
 "http://www.w3.org/TR/2001/REC-SVG-20010904/DTD/svg10.dtd">
<svg version="1.0" xmlns="http://www.w3.org/2000/svg"
 width="1242.000000pt" height="413.000000pt" viewBox="0 0 1242.000000 413.000000"
 preserveAspectRatio="xMidYMid meet">
<metadata>
Created by potrace 1.16, written by Peter Selinger 2001-2019
</metadata>
<g transform="translate(0.000000,413.000000) scale(0.100000,-0.100000)"
fill="#000000" stroke="none">
<path d="M0 2065 l0 -2065 6210 0 6210 0 0 2065 0 2065 -6210 0 -6210 0 0
-2065z m4238 953 c4 -29 1 -30 -123 -48 -98 -14 -125 -12 -132 5 -7 19 23 54
45 53 27 0 127 13 132 18 2 3 20 4 40 2 30 -3 35 -7 38 -30z"/>
</g>
</svg>
