<?xml version="1.0" standalone="no"?>
<!DOCTYPE svg PUBLIC "-//W3C//DTD SVG 20010904//EN"
 "http://www.w3.org/TR/2001/REC-SVG-20010904/DTD/svg10.dtd">
<svg version="1.0" xmlns="http://www.w3.org/2000/svg"
 width="8504.000000pt" height="11339.000000pt" viewBox="0 0 8504.000000 11339.000000"
 preserveAspectRatio="xMidYMid meet">
<metadata>
Created by potrace 1.16, written by Peter Selinger 2001-2019
</metadata>
<g transform="translate(0.000000,11339.000000) scale(0.100000,-0.100000)"
fill="#000000" stroke="none">
<path d="M0 56695 l0 -56695 42520 0 42520 0 0 56695 0 56695 -42520 0 -42520
0 0 -56695z m32130 34709 c25 -7 95 -26 155 -40 61 -15 118 -30 127 -35 10 -5
52 -14 95 -19 69 -9 125 -21 346 -76 32 -8 71 -14 85 -14 15 0 52 -7 82 -15
46 -13 356 -87 480 -114 19 -5 67 -18 105 -30 39 -12 104 -32 145 -45 41 -13
91 -27 110 -30 19 -3 78 -19 130 -35 116 -36 381 -108 470 -128 115 -26 184
-44 230 -60 25 -9 76 -24 115 -35 38 -10 110 -32 160 -48 49 -16 146 -41 215
-54 69 -14 166 -35 215 -47 50 -11 115 -25 145 -29 30 -5 114 -22 185 -39 72
-16 189 -39 260 -50 72 -12 150 -26 175 -31 55 -12 385 -51 455 -54 28 -2 65
-6 84 -10 18 -5 48 -10 65 -11 285 -30 362 -40 406 -54 19 -6 94 -16 165 -22
179 -15 246 -24 345 -42 47 -9 182 -23 300 -32 247 -18 399 -32 485 -46 185
-30 274 -40 500 -54 138 -9 257 -18 265 -21 22 -9 155 -22 330 -34 85 -5 236
-17 334 -26 99 -9 193 -14 210 -11 17 3 72 1 121 -4 50 -4 113 -10 140 -13 76
-7 385 -20 520 -21 66 -1 161 -7 210 -13 50 -6 209 -13 355 -16 337 -5 933
-32 1027 -46 40 -6 76 -9 80 -7 5 3 89 0 188 -5 250 -12 820 -12 1060 1 110 6
262 13 338 16 75 3 206 12 290 20 83 8 179 15 212 15 33 0 92 7 130 15 39 8
95 15 126 15 30 0 80 4 110 10 30 5 108 12 174 14 135 4 480 30 625 46 179 20
265 30 335 40 131 18 380 50 475 60 52 6 115 16 140 21 25 6 88 16 140 24 52
7 136 22 185 32 79 16 135 18 445 16 344 -3 423 -7 560 -34 98 -19 203 4 350
75 63 31 129 65 147 77 78 50 370 150 628 215 33 8 83 24 110 36 28 11 69 24
92 29 43 8 117 30 188 55 34 12 253 60 435 95 30 6 63 15 73 20 16 9 47 14
232 39 33 4 74 12 90 17 17 6 75 14 130 18 55 4 136 15 180 25 44 10 130 26
190 35 61 9 169 28 240 41 248 47 685 65 805 33 19 -5 60 -9 90 -9 30 -1 84
-7 120 -16 36 -8 93 -19 128 -23 92 -13 152 -38 233 -98 40 -29 84 -56 98 -60
77 -19 209 -107 285 -191 54 -60 64 -62 307 -62 149 -1 261 -6 334 -16 61 -9
137 -17 170 -18 108 -4 229 -18 261 -31 17 -7 51 -16 75 -20 24 -4 73 -15 109
-25 36 -10 90 -21 120 -25 30 -3 93 -17 140 -30 47 -14 123 -34 169 -45 46
-11 107 -31 136 -45 30 -14 58 -25 63 -25 5 0 35 -11 66 -25 31 -14 66 -25 76
-25 32 0 133 -44 194 -85 30 -20 132 -75 227 -121 94 -47 201 -107 238 -133
36 -26 93 -62 126 -80 33 -19 75 -45 93 -59 38 -29 148 -95 237 -143 33 -17
78 -46 100 -63 22 -17 85 -47 145 -67 58 -20 146 -53 195 -73 50 -19 105 -35
124 -36 35 0 272 -52 326 -71 17 -6 60 -22 98 -35 37 -14 98 -29 135 -34 177
-26 235 -31 342 -35 231 -8 353 -21 395 -42 48 -25 83 -33 184 -43 42 -4 101
-13 131 -18 30 -6 109 -19 175 -27 170 -23 293 -44 345 -60 25 -8 82 -17 127
-20 46 -4 131 -18 190 -32 242 -55 342 -72 416 -73 87 0 218 -27 322 -65 95
-35 233 -61 395 -74 152 -13 278 -28 360 -43 30 -6 75 -14 100 -18 25 -4 97
-17 160 -28 112 -19 210 -51 240 -77 26 -22 111 -44 215 -55 55 -6 125 -15
155 -20 30 -5 91 -14 135 -19 240 -28 309 -43 375 -78 36 -19 76 -45 90 -58
41 -38 161 -115 180 -115 9 0 52 -9 96 -21 43 -11 102 -24 129 -29 28 -4 70
-15 95 -24 25 -8 155 -36 290 -61 135 -25 263 -50 285 -55 56 -12 296 -39 445
-50 122 -9 180 -5 325 22 33 7 193 15 355 19 162 3 318 12 345 18 28 6 71 14
96 17 37 5 56 15 93 51 l47 44 82 -6 c188 -15 288 -48 354 -118 45 -48 103
-77 248 -122 83 -25 166 -53 185 -60 46 -19 399 -105 431 -105 13 0 69 -12
124 -26 55 -15 118 -30 141 -35 23 -4 74 -23 115 -42 41 -19 90 -40 109 -46
128 -41 163 -54 230 -81 41 -17 84 -35 95 -40 11 -5 52 -18 91 -29 39 -10 84
-25 100 -34 16 -8 79 -31 139 -52 61 -20 166 -59 235 -85 69 -27 152 -54 185
-60 33 -7 71 -16 85 -21 131 -45 865 -213 1045 -239 89 -13 273 -56 425 -99
36 -11 103 -29 150 -41 47 -12 112 -31 145 -42 33 -11 110 -35 170 -53 61 -19
175 -57 255 -85 80 -28 179 -62 220 -75 41 -13 131 -44 200 -69 69 -26 166
-58 217 -71 50 -14 109 -31 130 -39 21 -8 72 -22 113 -31 41 -9 98 -25 125
-36 28 -10 100 -30 160 -43 61 -13 140 -35 176 -49 36 -14 92 -31 125 -38 32
-7 71 -18 85 -25 14 -7 91 -33 170 -58 191 -60 270 -88 351 -124 36 -17 95
-38 129 -47 84 -21 221 -76 349 -140 58 -29 139 -64 180 -78 41 -14 120 -42
175 -62 55 -20 120 -43 145 -50 25 -7 65 -21 90 -30 48 -18 88 -30 240 -68 52
-13 106 -29 120 -35 27 -12 174 -51 285 -75 39 -9 129 -30 200 -47 72 -17 162
-38 200 -47 39 -8 104 -26 145 -39 79 -24 337 -91 405 -105 22 -4 54 -13 70
-19 17 -6 97 -27 178 -45 150 -34 174 -41 462 -134 88 -28 174 -54 190 -57 17
-4 84 -26 150 -49 66 -24 140 -48 165 -55 178 -47 314 -86 430 -124 289 -95
328 -107 416 -130 49 -13 108 -33 129 -45 22 -12 48 -21 57 -21 23 0 191 -59
294 -102 45 -19 101 -38 125 -42 63 -10 254 -64 308 -88 53 -23 236 -78 260
-78 9 0 48 -15 86 -33 39 -18 93 -39 120 -46 101 -27 171 -50 228 -74 31 -15
92 -36 135 -47 110 -31 256 -76 332 -104 60 -22 118 -36 240 -57 25 -4 135
-24 245 -44 110 -21 245 -41 300 -45 55 -4 145 -14 200 -23 55 -9 150 -23 210
-32 61 -8 191 -35 290 -59 99 -24 209 -49 245 -55 36 -7 103 -23 150 -36 142
-38 280 -64 385 -70 106 -7 208 -26 259 -50 17 -8 119 -43 228 -79 108 -36
214 -73 235 -84 21 -11 58 -22 83 -25 25 -3 87 -28 142 -56 53 -28 118 -56
145 -62 26 -7 82 -27 125 -46 42 -18 79 -33 83 -33 3 0 61 -27 128 -59 132
-64 245 -111 268 -111 8 0 55 -17 104 -39 50 -22 111 -45 136 -51 26 -7 64
-26 84 -43 57 -46 53 -66 -71 -322 -24 -49 -61 -124 -84 -165 -207 -378 -256
-486 -289 -640 -13 -57 -34 -129 -56 -190 -7 -19 -34 -102 -60 -185 -26 -82
-58 -184 -71 -225 -13 -41 -24 -83 -24 -92 0 -10 -6 -32 -14 -50 -17 -40 -40
-120 -61 -208 -8 -36 -26 -96 -40 -134 -14 -38 -25 -78 -25 -89 0 -23 -42
-163 -80 -267 -15 -41 -42 -127 -60 -190 -17 -63 -43 -149 -56 -190 -13 -41
-31 -97 -40 -125 -9 -27 -22 -64 -30 -82 -8 -17 -14 -39 -14 -50 -1 -23 -31
-130 -127 -443 -24 -80 -55 -183 -69 -230 -42 -142 -55 -184 -69 -215 -7 -16
-26 -68 -41 -115 -15 -47 -40 -114 -56 -148 -15 -35 -28 -70 -28 -79 0 -8 -11
-38 -24 -66 -13 -29 -32 -79 -44 -112 -29 -85 -70 -195 -86 -230 -8 -16 -28
-70 -45 -120 -47 -141 -88 -250 -105 -284 -9 -16 -29 -67 -45 -113 -60 -174
-100 -275 -125 -318 -14 -25 -26 -52 -26 -60 0 -8 -18 -60 -39 -115 -22 -55
-57 -147 -79 -205 -22 -58 -53 -141 -70 -185 -16 -44 -44 -120 -62 -170 -17
-49 -42 -117 -55 -150 -13 -33 -40 -109 -60 -170 -30 -90 -100 -268 -146 -370
-5 -11 -21 -51 -35 -90 -63 -172 -84 -225 -119 -305 -21 -47 -59 -141 -86
-210 -27 -69 -55 -138 -63 -155 -8 -16 -35 -81 -61 -143 -25 -63 -64 -152 -85
-198 -22 -46 -40 -89 -40 -94 0 -6 -22 -59 -49 -118 -27 -59 -58 -136 -69
-172 -11 -36 -31 -87 -45 -113 -14 -26 -35 -71 -45 -100 -11 -29 -42 -100 -70
-158 -27 -59 -57 -131 -67 -160 -9 -30 -34 -97 -54 -149 -21 -52 -44 -113 -51
-135 -7 -22 -18 -53 -26 -70 -8 -16 -29 -73 -48 -125 -19 -52 -49 -133 -67
-180 -17 -47 -44 -122 -60 -167 -16 -45 -49 -134 -74 -197 -25 -63 -45 -120
-45 -128 0 -7 -16 -49 -36 -93 -41 -92 -67 -162 -135 -365 -51 -150 -68 -193
-102 -270 -11 -25 -26 -64 -33 -86 -7 -23 -28 -79 -47 -125 -71 -171 -88 -216
-106 -279 -11 -36 -33 -99 -51 -140 -18 -41 -42 -106 -55 -145 -13 -38 -39
-115 -59 -170 -20 -55 -40 -116 -45 -135 -12 -47 -83 -244 -109 -300 -11 -25
-30 -76 -41 -113 -12 -38 -29 -83 -37 -99 -9 -17 -31 -78 -51 -137 -19 -58
-39 -114 -45 -124 -5 -10 -20 -53 -33 -95 -13 -42 -46 -142 -73 -222 -28 -80
-58 -172 -67 -205 -10 -33 -29 -87 -42 -120 -29 -69 -39 -97 -81 -220 -17 -49
-59 -166 -95 -260 -36 -93 -74 -210 -86 -260 -35 -146 -61 -235 -83 -284 -53
-118 -66 -148 -72 -173 -8 -36 -49 -83 -86 -98 -19 -8 -53 -10 -92 -7 -112 10
-232 25 -287 36 -74 15 -289 13 -451 -4 -74 -8 -234 -20 -355 -25 -149 -7
-252 -17 -320 -31 -70 -15 -151 -23 -270 -26 -168 -4 -171 -4 -280 28 -117 34
-181 39 -322 24 -48 -5 -94 -3 -135 5 -34 6 -126 12 -203 11 -136 -1 -189 -8
-415 -55 -217 -46 -289 -46 -690 -5 -52 5 -174 14 -270 19 -96 6 -204 17 -240
25 -65 14 -152 29 -350 61 -58 9 -118 20 -134 25 -16 5 -43 9 -61 9 -18 0 -52
7 -75 15 -23 8 -63 15 -89 15 -47 0 -172 22 -226 39 -16 5 -55 15 -85 22 -30
6 -100 27 -155 46 -55 19 -113 39 -130 43 -210 62 -274 84 -356 118 -53 22
-111 43 -130 47 -19 4 -43 14 -54 21 -11 8 -27 14 -37 14 -9 0 -61 22 -115 49
-161 80 -304 138 -368 151 -61 12 -146 38 -315 96 -140 48 -205 76 -415 180
-156 76 -215 112 -326 196 -75 57 -149 119 -165 138 -49 59 -77 79 -144 101
-67 23 -76 23 -320 16 l-125 -3 -144 -74 c-91 -47 -149 -83 -159 -100 -27 -43
-182 -249 -192 -255 -6 -4 -29 -34 -52 -68 -23 -34 -72 -96 -108 -137 -59 -65
-157 -195 -212 -279 -10 -14 -18 -39 -18 -56 0 -21 -21 -60 -65 -124 -59 -85
-65 -99 -65 -144 0 -41 -11 -72 -60 -172 -77 -155 -81 -168 -90 -300 -5 -60
-13 -141 -19 -180 -6 -38 -10 -135 -11 -215 0 -117 -4 -159 -21 -215 -11 -39
-25 -88 -30 -110 -9 -35 -27 -79 -112 -265 -11 -25 -41 -70 -67 -100 -26 -31
-62 -85 -80 -120 -18 -36 -44 -78 -57 -94 -42 -50 -63 -102 -63 -156 0 -59 18
-99 71 -157 22 -24 39 -49 39 -57 0 -8 10 -27 23 -43 13 -15 31 -48 41 -73 10
-25 21 -49 26 -55 15 -19 62 -181 70 -245 18 -130 32 -204 42 -224 8 -15 12
-208 15 -631 1 -335 7 -675 13 -755 14 -196 -2 -472 -69 -1160 -6 -58 -15
-174 -21 -258 -6 -85 -15 -172 -21 -195 -10 -43 -17 -106 -43 -387 -21 -227
-34 -328 -45 -375 -6 -22 -11 -65 -11 -96 0 -31 -5 -69 -10 -85 -10 -27 -20
-89 -39 -230 -4 -34 -12 -67 -16 -75 -12 -18 -24 -157 -30 -339 -3 -85 -13
-204 -22 -265 -13 -89 -16 -187 -15 -515 0 -293 -3 -427 -13 -485 -7 -44 -13
-114 -14 -155 0 -41 -5 -111 -10 -155 -6 -44 -15 -172 -21 -285 -17 -321 -41
-666 -61 -890 -6 -63 -14 -259 -19 -435 -5 -176 -14 -389 -20 -473 -5 -85 -8
-157 -5 -161 11 -19 14 -296 4 -391 -10 -100 -22 -321 -21 -385 4 -236 -2
-386 -17 -435 -6 -19 -11 -87 -11 -150 0 -63 -6 -171 -12 -240 -7 -69 -13
-179 -13 -245 -4 -276 -34 -809 -60 -1050 -8 -77 -18 -212 -21 -300 -4 -104
-11 -170 -20 -189 -8 -16 -14 -56 -14 -88 0 -33 -4 -101 -10 -151 -26 -241
-40 -416 -45 -562 -4 -88 -11 -173 -16 -190 -10 -33 -28 -257 -40 -490 -4 -82
-13 -210 -20 -284 -8 -94 -9 -150 -2 -190 6 -33 7 -83 2 -121 -5 -36 -13 -101
-18 -145 -15 -123 -16 -202 -1 -220 11 -13 9 -23 -10 -62 -23 -46 -29 -131
-14 -209 3 -18 -1 -58 -9 -90 -8 -33 -13 -71 -10 -85 3 -16 -7 -60 -22 -105
-23 -64 -29 -106 -36 -224 -4 -80 -15 -190 -23 -245 -8 -55 -21 -147 -30 -205
-22 -148 -26 -284 -31 -880 -2 -289 -7 -554 -11 -590 -3 -36 -8 -281 -9 -545
-2 -339 -7 -490 -15 -515 -12 -35 -25 -405 -35 -990 -3 -151 -10 -306 -16
-345 -6 -43 -10 -260 -10 -566 0 -288 -4 -539 -10 -600 -7 -67 -14 -742 -20
-1899 -5 -987 -9 -1869 -11 -1960 -1 -91 -1 -199 0 -240 6 -188 -22 -994 -38
-1090 -9 -57 -13 -419 -14 -1485 -2 -1385 -5 -1585 -26 -1695 -6 -30 -14 -122
-17 -205 -3 -82 -11 -159 -17 -170 -7 -12 -13 -116 -17 -270 -6 -238 -15 -416
-39 -715 -13 -169 -26 -392 -45 -770 -14 -285 -27 -503 -46 -795 -6 -77 -13
-223 -17 -325 -5 -114 -12 -193 -20 -207 -8 -15 -12 -92 -12 -265 0 -146 -6
-299 -15 -383 -9 -87 -15 -241 -15 -404 0 -146 -5 -301 -10 -345 -38 -299 -47
-661 -55 -2136 -17 -2880 -10 -4081 25 -4375 11 -96 29 -305 40 -470 4 -66 13
-151 18 -190 6 -38 16 -113 21 -165 6 -52 14 -120 17 -150 4 -30 10 -65 15
-78 5 -13 9 -47 9 -75 0 -29 7 -83 15 -122 8 -38 15 -89 15 -113 0 -24 6 -71
14 -105 8 -34 20 -96 27 -137 7 -41 23 -96 35 -122 37 -75 44 -123 49 -380 3
-202 8 -259 26 -338 27 -118 25 -180 -10 -397 -9 -52 -11 -189 -7 -485 3 -227
7 -427 8 -445 2 -39 -36 -97 -77 -117 -16 -8 -61 -17 -98 -19 -51 -4 -77 -11
-107 -31 -23 -15 -78 -34 -132 -47 -97 -21 -114 -22 -613 -4 -106 4 -244 22
-300 40 -27 8 -79 15 -115 14 -45 -1 -79 5 -110 19 -25 11 -74 23 -110 26 -36
4 -110 13 -165 21 -205 29 -283 37 -402 41 -94 3 -132 9 -168 25 -38 17 -58
19 -103 14 -32 -3 -95 -1 -142 5 -47 7 -116 15 -155 20 -38 4 -88 15 -110 23
-22 8 -89 23 -150 32 -60 9 -137 21 -170 25 -33 5 -107 14 -165 20 -58 5 -157
16 -220 24 -63 9 -209 20 -325 27 -115 6 -248 17 -295 25 -47 8 -101 12 -120
9 -19 -3 -624 -7 -1345 -10 -788 -3 -1336 -9 -1375 -15 -36 -5 -110 -10 -165
-10 -55 0 -118 -5 -140 -11 -23 -6 -221 -12 -470 -15 -236 -3 -509 -9 -605
-14 -96 -6 -341 -13 -545 -16 -203 -3 -386 -6 -405 -7 -19 -1 -269 3 -555 7
-286 5 -527 8 -535 8 -120 -11 -420 -15 -630 -9 -936 26 -1272 26 -1375 -1
-55 -14 -366 -33 -610 -36 -44 -1 -89 -6 -100 -12 -26 -15 -156 -26 -325 -29
-74 -1 -146 -6 -159 -12 -14 -5 -49 -6 -90 -1 -36 5 -174 5 -306 1 -238 -7
-296 -7 -450 2 -252 13 -602 16 -638 4 -30 -10 -42 -10 -65 1 -19 9 -95 14
-262 16 -129 2 -275 6 -324 9 -57 4 -111 2 -152 -6 -51 -10 -90 -10 -201 0
-233 21 -418 27 -484 15 -35 -6 -82 -8 -112 -3 -89 13 -419 20 -482 10 -35 -5
-97 -5 -150 0 -49 5 -137 11 -195 14 -58 3 -175 9 -260 15 -85 5 -220 12 -300
14 -82 2 -159 9 -178 16 -22 8 -56 10 -98 6 -40 -4 -102 -1 -171 10 -73 11
-148 15 -233 12 -73 -3 -155 0 -196 7 -47 8 -103 10 -165 4 -54 -4 -124 -3
-164 2 -38 6 -245 12 -460 14 -252 2 -400 7 -419 15 -16 6 -72 13 -125 16 -53
2 -112 9 -133 15 -20 5 -46 6 -60 1 -36 -13 -592 -6 -668 8 -47 10 -185 12
-505 11 -760 -4 -1102 -3 -1355 2 -194 4 -257 2 -302 -9 -43 -11 -73 -12 -120
-5 -89 13 -250 14 -311 2 -57 -11 -456 -23 -692 -21 -83 1 -169 -3 -190 -8
-22 -6 -191 -13 -375 -16 -219 -3 -345 -9 -365 -16 -29 -11 -124 -13 -505 -9
-158 2 -337 -12 -385 -31 -18 -7 -83 -11 -160 -11 -71 1 -156 -4 -190 -10 -33
-6 -141 -12 -240 -14 -244 -4 -432 -19 -477 -39 -20 -8 -60 -15 -90 -15 -352
1 -701 -8 -733 -19 -55 -21 -239 -37 -378 -34 -83 2 -151 -1 -171 -8 -19 -6
-92 -13 -163 -15 -87 -2 -138 -8 -158 -19 -26 -13 -37 -13 -85 0 -63 16 -187
18 -390 4 -138 -10 -301 -14 -875 -25 -444 -8 -479 -8 -540 5 -44 9 -109 10
-245 4 -102 -4 -201 -7 -220 -7 -115 3 -415 3 -535 -1 -278 -9 -543 -10 -705
-3 -128 5 -186 3 -259 -10 -83 -14 -105 -14 -180 -2 -67 11 -179 13 -501 10
-463 -5 -463 -5 -965 -1 -220 1 -377 -2 -403 -8 -26 -6 -56 -7 -80 -1 -20 5
-183 8 -362 7 -224 -1 -343 2 -382 11 -45 10 -66 10 -100 0 -24 -7 -70 -14
-103 -14 -100 -3 -237 -15 -285 -26 -25 -6 -81 -9 -125 -8 -44 1 -109 1 -145
1 -36 0 -101 0 -145 0 -44 0 -93 0 -110 0 -180 -4 -281 -3 -395 2 -74 3 -222
2 -328 -2 -124 -6 -211 -5 -245 1 -81 16 -255 16 -314 0 -44 -12 -68 -12 -160
0 -125 16 -395 15 -446 -2 -26 -9 -46 -9 -83 0 -33 8 -135 11 -304 9 -140 -2
-271 -3 -290 -4 -19 0 -114 4 -210 9 -96 5 -186 8 -200 7 -101 -8 -350 -8
-473 1 -106 7 -158 7 -185 -1 -25 -8 -84 -8 -187 -3 -124 7 -156 6 -187 -6
-25 -10 -49 -13 -71 -8 -91 21 -900 -2 -1122 -31 -107 -15 -1189 -4 -1425 13
-58 4 -130 4 -160 0 -99 -15 -352 -15 -385 0 -22 9 -78 13 -185 13 -85 1 -189
1 -230 2 -41 0 -109 0 -150 -1 -41 0 -113 4 -160 10 -47 6 -177 10 -290 9
-113 0 -216 -1 -230 -1 -27 0 -150 6 -274 14 -49 3 -92 0 -110 -7 -22 -9 -79
-10 -201 -5 -198 8 -562 20 -620 20 -366 -1 -819 -12 -856 -21 -32 -8 -65 -8
-105 -2 -89 14 -109 14 -191 -9 -43 -11 -87 -18 -98 -15 -12 3 -73 1 -136 -5
-63 -7 -139 -11 -169 -10 -60 2 -165 -26 -242 -65 -51 -26 -118 -31 -177 -14
-36 10 -91 56 -91 75 0 6 -16 30 -35 52 -35 41 -65 110 -65 151 0 13 -7 37
-16 53 -13 27 -21 145 -15 234 3 51 -13 112 -36 137 -22 24 -24 32 -19 85 3
32 5 67 5 78 -1 28 0 43 7 99 5 39 2 53 -14 76 -13 17 -19 36 -15 49 4 15 -2
30 -17 46 -19 21 -21 28 -11 57 7 23 7 45 0 73 -6 22 -13 50 -16 63 -3 12 -9
25 -14 28 -5 3 -9 12 -9 20 0 8 -9 23 -19 33 -11 11 -25 39 -31 62 -6 23 -15
49 -19 58 -19 39 -39 147 -30 164 9 16 5 143 -6 191 -3 11 0 55 6 96 6 41 10
96 10 122 0 26 4 50 9 53 16 10 11 54 -9 83 -25 35 -37 186 -18 220 10 17 11
37 4 80 -5 31 -10 91 -12 133 -1 41 -7 85 -14 97 -7 13 -9 38 -5 62 4 23 2 45
-4 52 -7 9 -7 42 -1 98 9 88 3 192 -13 223 -12 24 8 97 27 97 22 0 18 17 -5
23 -17 4 -19 11 -14 51 4 28 2 51 -4 59 -8 9 -12 102 -12 288 0 151 -1 296 -1
324 0 27 4 58 9 70 28 59 33 84 23 103 -17 32 -19 205 -3 225 10 12 11 21 2
37 -7 12 -9 37 -6 55 4 17 0 63 -8 101 -11 53 -13 105 -7 229 9 183 -1 357
-24 430 -12 37 -17 106 -21 265 -3 141 -10 240 -20 288 -8 40 -12 86 -9 103 4
19 2 38 -7 52 -41 63 -60 185 -37 244 14 37 -5 176 -32 238 -15 33 -22 74 -24
135 -2 49 -9 124 -15 167 -6 43 -15 139 -21 213 -10 134 -11 157 -10 215 1 47
-6 187 -18 345 -18 248 -30 472 -25 485 3 6 -1 25 -7 41 -12 28 -31 199 -27
239 6 67 1 192 -11 270 -16 104 -18 125 -30 380 -5 117 -13 202 -21 220 -10
22 -13 78 -11 205 2 130 -2 196 -14 255 -19 93 -32 191 -44 325 -5 52 -14 114
-21 137 -10 33 -10 48 -1 71 9 20 10 67 5 158 -3 71 -5 151 -5 178 2 55 -24
402 -39 521 -11 83 -25 384 -21 445 5 89 2 144 -12 173 -11 25 -15 85 -15 279
-1 175 -4 254 -13 270 -7 13 -14 75 -16 146 -2 68 -9 135 -15 150 -12 32 -17
123 -22 418 -1 122 -6 227 -11 233 -12 21 -16 207 -6 290 7 50 6 112 0 176
-21 212 -20 201 -33 598 -3 104 -10 196 -15 205 -5 9 -11 89 -15 177 -3 88
-10 174 -15 190 -4 17 -5 84 -1 149 4 65 4 135 -1 155 -30 142 -40 246 -38
431 2 145 1 153 -11 219 -8 43 -9 71 -2 86 5 12 8 68 5 126 -2 57 -6 149 -7
204 -2 55 -6 120 -10 145 -5 31 -3 58 8 88 13 37 14 65 4 215 -17 257 -16 348
3 378 11 16 18 57 22 119 4 52 13 131 22 175 9 44 16 88 15 98 -3 39 -3 115
-1 167 2 30 3 145 2 255 0 110 2 245 5 300 11 237 11 290 -4 330 -10 29 -15
104 -18 270 -2 127 -6 254 -10 284 -3 29 -1 81 6 114 6 34 12 93 12 131 -1 39
3 113 8 165 7 77 6 98 -6 116 -12 18 -16 66 -18 206 -2 101 -7 203 -11 226 -5
29 -2 58 10 97 15 47 16 60 5 86 -14 34 -7 271 10 329 4 17 4 46 -1 68 -5 21
-6 65 -3 98 3 33 2 85 -3 115 -6 35 -5 99 2 173 6 69 7 149 3 195 -12 112 -11
295 1 387 10 72 7 283 -5 475 -2 36 -4 79 -3 95 11 376 12 435 4 550 -3 44 -6
103 -7 130 -1 51 -1 69 2 228 1 57 -4 105 -14 135 -13 37 -15 73 -10 167 16
341 18 487 11 655 -4 102 -7 199 -7 215 11 581 11 853 -1 898 -7 27 -6 48 2
71 10 29 9 43 -6 92 -18 58 -21 92 -18 214 2 69 -1 217 -12 555 -3 116 -7 273
-9 350 -1 79 -7 152 -13 167 -7 15 -12 51 -12 80 1 158 -3 237 -13 273 -6 22
-9 76 -7 120 4 128 1 205 -14 275 -9 44 -11 98 -6 168 8 133 4 263 -9 332 -30
149 -35 185 -33 223 7 166 -11 365 -37 404 -11 18 -14 56 -13 169 0 94 -3 153
-11 167 -14 26 -30 122 -27 157 6 62 1 131 -16 210 -14 64 -19 132 -20 280 -1
110 -7 210 -13 230 -6 19 -11 53 -10 75 2 72 -14 199 -29 234 -8 18 -19 74
-24 125 -5 50 -13 123 -18 161 -5 39 -10 116 -10 172 0 57 -3 118 -7 137 -6
33 -10 102 -18 277 -2 41 -11 95 -19 120 -9 25 -18 106 -22 189 -4 80 -12 153
-17 163 -5 11 -12 56 -14 100 -3 45 -9 136 -15 202 -6 66 -10 153 -9 193 0 40
-4 99 -9 130 -6 31 -13 134 -17 227 -11 320 -13 360 -19 505 -3 80 -10 179
-16 220 -15 104 -30 377 -34 620 -1 113 -9 270 -16 350 -6 80 -13 215 -15 300
-13 690 -41 1467 -52 1485 -7 11 -21 211 -26 395 -2 63 -9 144 -14 180 -6 36
-11 119 -10 185 0 66 -2 188 -6 270 -3 83 -8 206 -11 275 -3 69 -7 136 -9 150
-20 125 -27 199 -31 341 -2 90 -9 182 -14 204 -6 22 -11 98 -11 168 0 71 -4
136 -9 146 -10 18 -15 123 -12 256 2 44 -2 101 -8 126 -7 31 -7 66 0 109 7 44
7 66 -1 74 -12 12 -13 56 -1 75 6 9 5 25 -1 40 -6 14 -11 78 -12 141 -1 63 -8
144 -15 180 -10 55 -14 265 -10 575 1 93 -10 268 -20 315 -10 46 -14 281 -13
670 1 85 0 224 -1 325 0 61 0 236 0 390 1 154 2 291 2 305 0 14 2 50 4 80 3
30 8 113 12 183 3 70 11 169 17 220 5 51 9 116 9 146 0 29 4 62 10 73 6 11 12
70 14 131 2 62 9 153 15 202 6 50 13 124 16 165 3 41 10 83 15 92 5 9 9 32 9
50 0 18 4 49 9 68 5 19 14 89 21 155 6 66 16 131 21 144 11 27 41 175 59 291
6 41 16 95 21 120 4 25 11 86 14 135 3 50 10 116 16 148 10 57 19 123 39 302
6 50 17 110 25 135 7 25 16 66 19 91 3 26 14 75 25 110 11 35 25 91 31 124 7
33 16 70 21 83 5 13 9 43 9 67 0 24 4 55 9 68 11 28 -9 123 -34 169 -8 14 -15
32 -15 39 0 7 -7 20 -16 30 -9 10 -24 49 -34 86 -10 38 -30 86 -44 108 -14 21
-31 56 -37 79 -5 23 -15 55 -21 71 -6 17 -17 50 -25 75 -8 25 -22 61 -32 80
-10 19 -22 51 -26 70 -4 19 -21 59 -36 89 -16 30 -32 71 -35 92 -4 24 -13 39
-24 42 -12 3 -19 18 -23 43 -8 61 -57 187 -78 202 -11 7 -19 25 -19 41 0 15
-4 31 -8 37 -5 5 -17 35 -26 66 -10 32 -27 69 -38 83 -24 31 -38 75 -43 142
-3 35 -15 74 -38 115 -19 35 -40 90 -47 123 -7 33 -15 67 -18 75 -3 8 -11 40
-18 70 -7 30 -17 73 -23 95 -5 22 -14 58 -19 80 -6 22 -15 72 -22 110 -6 39
-17 93 -25 120 -36 133 -49 198 -56 290 -5 55 -13 116 -18 135 -5 19 -15 62
-21 95 -7 33 -22 80 -35 105 -12 25 -25 74 -29 110 -4 36 -18 106 -31 155 -27
103 -28 202 -1 274 22 61 20 104 -9 161 -14 27 -25 58 -25 70 0 11 -3 20 -7
20 -17 0 -230 -113 -253 -134 -46 -42 -116 -84 -175 -105 -32 -11 -65 -27 -74
-35 -47 -41 -459 -259 -531 -281 -14 -4 -53 -21 -88 -36 -86 -40 -387 -138
-503 -165 -64 -15 -80 -18 -219 -48 -173 -37 -312 -56 -550 -75 -69 -6 -149
-15 -179 -21 -29 -5 -79 -10 -109 -10 -30 0 -89 -6 -131 -14 -114 -21 -246
-35 -441 -46 -349 -19 -593 -40 -693 -59 -56 -11 -133 -25 -172 -31 -38 -7
-90 -18 -115 -25 -25 -8 -106 -21 -180 -30 -74 -9 -162 -20 -195 -25 -60 -9
-367 -26 -395 -22 -8 1 -36 -3 -63 -8 -26 -5 -150 -14 -276 -20 -235 -10 -312
-22 -501 -74 -152 -42 -273 -78 -295 -87 -42 -17 -104 -27 -210 -34 -104 -6
-116 -9 -216 -55 -125 -57 -216 -74 -366 -71 -225 6 -260 5 -318 -7 -33 -6
-98 -17 -145 -23 -47 -6 -139 -25 -205 -41 -66 -17 -142 -34 -170 -39 -27 -4
-73 -15 -102 -23 -28 -9 -71 -20 -95 -25 -24 -5 -112 -30 -196 -56 -210 -66
-220 -61 -272 127 -32 115 -102 288 -132 327 -10 13 -18 32 -18 43 0 10 -11
40 -23 66 -13 26 -35 81 -48 122 -14 47 -39 96 -66 132 -24 31 -43 61 -43 67
0 5 -25 60 -55 122 -33 66 -55 125 -55 145 0 18 -6 45 -14 61 -95 191 -147
304 -152 333 -4 19 -22 63 -41 97 -18 34 -45 97 -59 140 -14 43 -33 93 -43
113 -32 64 -48 104 -60 154 -13 55 -109 252 -147 301 -13 18 -24 43 -24 57 0
14 -7 31 -15 38 -8 7 -15 19 -15 27 0 28 -43 148 -60 168 -10 11 -26 47 -37
80 -72 214 -85 253 -95 280 -6 17 -18 53 -28 81 -10 28 -22 60 -28 70 -5 10
-22 57 -37 104 -15 47 -33 94 -40 105 -19 32 -62 153 -86 240 -24 92 -63 188
-90 227 -11 14 -19 33 -19 42 0 9 -15 55 -34 104 -39 100 -104 287 -134 382
-45 143 -92 263 -115 298 -28 41 -48 83 -70 152 -18 53 -47 129 -112 295 -26
66 -52 138 -57 160 -6 22 -24 70 -39 106 -16 36 -29 70 -29 76 0 27 -104 321
-147 418 -28 61 -56 128 -63 150 -7 22 -18 54 -25 70 -7 17 -18 43 -24 59 -11
26 -30 86 -86 268 -8 26 -15 56 -15 66 0 11 -13 48 -30 83 -16 35 -42 111 -59
169 -36 127 -64 209 -96 275 -13 28 -42 102 -65 165 -23 63 -46 124 -53 135
-29 53 -45 94 -52 133 -9 57 -70 236 -115 337 -4 11 -11 33 -15 49 -3 16 -20
59 -37 95 -17 36 -31 77 -32 91 -1 14 -7 34 -13 45 -6 11 -13 43 -17 70 -6 46
-28 103 -92 241 -13 28 -32 85 -43 127 -10 43 -30 96 -44 120 -14 23 -33 72
-42 107 -9 36 -31 101 -50 145 -18 44 -37 96 -41 115 -3 19 -15 46 -25 59 -11
13 -19 33 -19 45 0 11 -11 48 -25 81 -13 33 -25 69 -25 79 0 11 -11 42 -24 70
-13 28 -29 78 -35 111 -6 33 -20 72 -31 87 -11 15 -20 38 -20 51 0 12 -4 27
-10 33 -5 5 -21 46 -34 89 -13 44 -39 116 -56 160 -47 116 -70 186 -70 207 0
10 -9 36 -20 58 -12 23 -20 59 -20 87 0 27 -7 58 -15 70 -8 12 -28 59 -45 105
-17 45 -37 97 -44 113 -8 17 -20 57 -26 90 -7 33 -18 74 -26 90 -35 78 -54
129 -54 145 0 10 -14 51 -31 91 -17 41 -34 94 -39 119 -4 25 -16 70 -27 100
-12 30 -29 75 -38 100 -9 25 -28 88 -41 140 -14 52 -37 122 -51 155 -14 33
-29 83 -33 112 -4 28 -26 89 -47 135 -22 46 -45 110 -52 143 -18 90 -27 125
-44 175 -9 25 -36 128 -61 230 -58 241 -79 315 -103 370 -11 25 -28 72 -37
105 -10 33 -24 78 -32 100 -7 22 -18 73 -25 114 -6 41 -19 90 -29 110 -10 20
-23 68 -30 106 -21 126 -32 179 -56 267 -13 48 -24 95 -24 106 0 11 -14 50
-31 88 -54 119 -63 169 -65 389 -1 110 -5 228 -9 262 -9 76 4 101 105 191 58
52 82 67 136 82 36 11 71 24 78 29 15 13 195 78 266 97 30 8 73 23 95 34 22
10 96 38 165 61 69 23 156 57 194 76 38 19 101 41 140 49 66 14 413 124 568
181 62 22 78 24 250 22 319 -3 295 -8 419 86 64 49 301 175 329 175 13 0 159
57 191 75 14 7 95 34 181 59 86 25 210 64 275 87 65 22 129 43 143 46 33 6
149 53 175 70 11 7 26 13 33 13 8 0 51 18 97 40 46 21 107 47 137 56 29 9 87
31 128 50 41 18 138 56 215 84 77 28 187 72 245 99 58 27 114 51 125 54 11 3
52 18 90 32 86 33 233 87 300 110 28 9 84 30 125 45 79 30 254 87 305 101 28
7 212 71 400 138 44 16 127 43 185 61 58 17 134 44 170 60 36 16 103 39 150
50 47 12 121 37 165 56 44 20 136 55 205 79 69 24 150 54 181 68 30 14 89 37
131 51 41 14 104 39 139 56 35 16 69 30 75 30 6 0 53 18 104 40 51 22 97 40
101 40 5 0 66 26 137 59 70 32 182 80 248 106 65 26 184 73 264 105 80 31 170
63 200 70 55 13 200 61 255 85 17 7 98 36 180 64 83 28 159 56 170 61 33 16
218 87 255 98 19 6 87 30 150 53 63 22 136 47 162 54 25 7 55 18 65 23 10 6
43 17 73 25 30 8 93 29 140 47 47 17 121 43 165 56 94 30 142 46 245 84 41 15
113 40 160 55 47 15 103 37 125 48 58 29 189 76 275 97 41 10 102 32 135 48
33 16 114 53 180 81 66 29 149 65 185 81 78 34 123 48 305 95 77 20 151 43
165 50 14 7 50 18 80 25 30 7 60 16 65 20 9 6 330 110 380 123 25 6 332 127
444 174 46 19 116 46 157 59 40 12 83 29 96 37 13 9 68 34 123 57 55 23 179
80 275 127 320 155 354 171 445 212 50 22 104 43 120 47 17 4 58 20 93 35 35
16 87 35 115 43 29 8 66 19 82 25 17 6 71 24 120 40 50 16 126 44 170 62 44
17 125 47 180 65 55 19 129 47 165 64 36 16 115 50 175 75 61 26 135 60 165
77 66 38 196 107 229 122 14 6 89 43 167 83 146 74 328 133 409 133 20 0 45 5
56 10 11 6 83 10 166 10 82 0 157 0 168 0 120 6 210 -2 247 -21 22 -11 57 -21
79 -21 42 0 64 11 119 62 41 38 120 75 204 97 34 8 83 26 109 39 65 32 96 30
143 -7 28 -22 45 -29 64 -25 14 3 47 10 73 16 26 5 76 21 110 34 117 46 335
96 482 111 66 7 203 46 360 102 39 14 90 29 115 33 80 13 241 51 304 71 199
65 370 102 546 119 61 6 136 25 265 68 99 32 203 64 230 70 28 6 88 20 135 31
47 11 128 25 179 31 51 7 112 18 134 26 22 8 74 14 117 14 43 0 95 6 116 14
22 7 71 16 109 20 39 4 89 12 113 17 24 5 78 14 119 20 42 6 125 26 186 45
l109 34 131 -10 c100 -7 147 -16 197 -36 l66 -26 59 22 c72 25 255 81 345 105
36 10 97 28 136 41 39 13 107 28 150 33 44 6 129 26 189 47 86 28 135 38 225
45 63 4 140 15 170 23 30 9 69 16 86 16 16 0 82 18 145 41 62 22 159 51 213
65 54 14 120 33 145 43 70 28 228 73 476 135 55 14 114 30 130 36 159 58 365
120 430 130 44 7 103 20 130 30 28 10 75 21 105 25 30 4 80 13 110 20 30 7 80
16 111 19 30 3 116 26 190 50 73 25 161 48 194 51 33 4 78 13 100 20 22 7 96
18 165 25 69 6 145 15 171 20 25 5 144 11 265 15 237 6 426 20 488 37 22 5 83
12 135 14 53 3 103 7 111 9 8 2 78 11 155 20 77 8 185 22 240 30 55 8 161 21
235 30 227 25 344 43 416 64 38 11 103 25 144 31 41 7 95 16 120 21 190 41
258 48 536 58 160 6 324 8 365 5 116 -9 138 5 333 214 32 35 90 88 130 120 39
31 121 106 181 167 138 137 136 136 193 151 52 14 113 10 182 -12z"/>
<path d="M43161 87505 c-46 -39 -81 -110 -88 -179 -3 -34 -12 -78 -20 -100 -7
-21 -13 -58 -13 -83 0 -24 -7 -58 -16 -75 -9 -17 -13 -40 -10 -51 3 -12 -2
-42 -10 -68 -13 -37 -13 -52 -4 -69 10 -19 18 -22 57 -17 65 7 80 25 63 76 -7
21 -10 52 -7 68 18 90 29 129 47 171 13 28 22 75 25 117 2 40 14 102 28 145
14 41 23 78 21 82 -10 16 -43 8 -73 -17z"/>
<path d="M42821 87334 c-52 -26 -53 -26 -91 -9 -45 20 -65 16 -113 -29 l-37
-34 22 -38 c20 -34 23 -53 23 -150 0 -101 -2 -113 -25 -147 -14 -20 -35 -42
-48 -48 -20 -11 -26 -10 -45 9 -21 22 -22 30 -22 191 0 128 -3 172 -14 184
-19 23 -23 22 -70 -19 -47 -41 -52 -73 -27 -160 8 -27 17 -94 19 -149 6 -150
19 -163 118 -125 46 17 54 18 73 5 29 -21 54 -19 86 8 15 12 36 27 46 34 19
12 19 13 0 28 -11 8 -30 15 -43 15 -13 0 -26 6 -29 13 -6 17 12 66 33 89 23
26 52 116 53 163 0 85 73 143 98 78 18 -49 22 -93 12 -136 -31 -131 -36 -157
-32 -162 7 -7 42 14 42 26 0 6 13 27 28 47 55 71 103 290 72 327 -19 23 -70
18 -129 -11z"/>
<path d="M42035 87203 c-28 -22 -72 -60 -99 -85 -54 -49 -58 -61 -72 -240 -6
-71 -5 -80 20 -123 l27 -45 67 5 c41 3 76 12 91 23 31 23 38 42 15 42 -10 0
-37 7 -60 16 -36 14 -46 24 -64 66 -13 30 -18 57 -14 70 3 12 6 41 6 64 -1 24
5 56 13 71 8 15 15 33 15 40 0 42 112 38 153 -5 28 -30 45 -127 29 -159 -5
-10 -12 -46 -14 -80 l-4 -62 28 15 c15 8 40 34 55 57 25 38 28 53 31 150 2 60
-1 121 -7 140 -14 40 -51 64 -117 72 -47 7 -52 5 -99 -32z"/>
<path d="M41528 87206 c-37 -21 -88 -76 -88 -93 0 -5 -11 -20 -25 -33 -14 -13
-25 -31 -25 -39 0 -9 -9 -41 -19 -71 -16 -49 -38 -173 -33 -192 1 -4 3 -59 6
-122 2 -76 0 -120 -8 -129 -12 -16 -71 -57 -80 -57 -11 0 -6 35 7 55 14 21 16
162 3 183 -4 6 -1 26 6 44 15 37 9 119 -8 125 -12 4 -47 -48 -59 -88 -4 -13
-25 -43 -46 -66 -40 -43 -50 -73 -26 -73 8 0 22 -9 32 -20 17 -19 17 -21 -10
-60 -15 -22 -34 -45 -41 -51 -22 -18 -17 -25 21 -25 53 0 60 -12 42 -82 -8
-33 -25 -70 -36 -81 -12 -12 -21 -25 -21 -31 0 -5 -7 -10 -15 -10 -8 0 -15 -4
-15 -10 0 -5 -15 -25 -34 -44 -35 -34 -78 -110 -89 -156 -5 -21 0 -29 28 -48
l33 -23 59 26 c32 15 81 46 108 70 28 23 60 45 73 49 12 4 22 11 22 16 0 5 32
41 70 79 64 64 86 101 60 101 -13 0 -50 -37 -50 -50 0 -5 -6 -10 -14 -10 -8 0
-18 -9 -21 -20 -3 -11 -13 -20 -21 -20 -8 0 -19 -11 -24 -25 -5 -14 -21 -29
-34 -35 -13 -5 -25 -13 -27 -18 -6 -16 -98 -82 -114 -82 -9 0 -29 -9 -44 -21
-23 -17 -32 -19 -50 -10 -43 23 -25 60 92 192 18 19 58 52 90 73 31 21 60 44
65 50 4 7 45 32 92 56 47 23 96 51 109 61 13 11 28 19 33 19 11 0 64 38 95 68
51 50 90 132 63 132 -5 0 -10 -4 -10 -10 0 -5 -19 -23 -41 -40 -34 -24 -45
-27 -61 -19 -16 9 -23 7 -34 -9 -13 -20 -111 -58 -122 -48 -3 3 2 23 11 43 30
71 39 144 28 249 -13 135 -5 174 50 224 37 34 49 39 76 35 53 -9 84 43 47 79
-20 20 -30 19 -76 -8z"/>
<path d="M43799 87182 c-13 -10 -45 -26 -70 -35 -61 -23 -78 -44 -88 -106 -4
-28 -15 -59 -23 -69 -18 -20 -48 -118 -48 -157 0 -30 89 -123 124 -130 45 -9
127 -12 131 -5 3 5 -17 24 -45 44 -65 47 -84 83 -76 150 3 28 8 83 11 123 7
97 24 147 52 151 31 5 80 -24 89 -50 4 -13 14 -28 22 -34 10 -7 16 -28 16 -53
1 -22 4 -41 7 -41 3 0 14 18 24 40 17 38 17 41 0 77 -52 111 -79 131 -126 95z"/>
<path d="M43252 87094 c-55 -25 -66 -47 -35 -70 10 -7 29 -45 43 -85 18 -52
33 -77 51 -88 14 -9 38 -25 53 -35 26 -18 29 -18 62 -3 38 19 43 32 15 47 -27
14 -61 72 -61 104 0 14 -4 34 -9 44 -5 9 -18 36 -28 59 -10 23 -23 44 -29 47
-5 2 -34 -7 -62 -20z"/>
<path d="M44101 87087 c-44 -22 -48 -41 -18 -94 30 -57 45 -162 28 -205 -16
-42 2 -164 28 -192 12 -12 21 -30 21 -39 0 -9 12 -24 28 -33 15 -9 40 -26 55
-36 43 -29 137 -51 165 -39 13 6 32 11 43 11 13 0 25 11 34 34 18 42 27 240
14 311 -7 43 -16 135 -18 197 -1 10 -11 27 -23 38 -20 19 -30 21 -80 15 -32
-3 -74 -13 -93 -20 -54 -23 -81 -19 -94 14 -7 15 -24 33 -37 40 -30 13 -24 13
-53 -2z m209 -86 c65 -15 86 -45 99 -141 19 -149 22 -273 6 -304 -8 -16 -15
-35 -15 -42 0 -8 -10 -14 -23 -14 -33 0 -106 76 -138 145 -25 53 -28 73 -31
180 -3 112 -1 122 20 153 25 35 29 36 82 23z"/>
<path d="M41305 87070 c-9 -10 -34 -25 -54 -31 -20 -7 -45 -18 -56 -25 -11 -8
-27 -14 -37 -14 -25 0 -88 -59 -88 -82 0 -17 5 -19 33 -15 32 5 87 22 119 38
10 5 22 9 28 9 20 0 120 110 114 125 -8 21 -38 19 -59 -5z"/>
<path d="M42657 86478 c-127 -25 -237 -64 -328 -114 -46 -25 -91 -52 -99 -58
-8 -7 -37 -25 -64 -40 -57 -33 -271 -243 -281 -277 -4 -13 -17 -37 -29 -54
-23 -31 -116 -224 -116 -241 0 -5 -7 -22 -16 -39 -23 -45 -39 -176 -38 -316 1
-131 13 -213 44 -309 10 -30 21 -69 25 -87 3 -17 13 -37 21 -44 8 -6 14 -16
14 -21 0 -21 133 -207 197 -277 38 -41 104 -98 149 -128 100 -65 275 -148 329
-156 22 -3 85 -15 139 -27 86 -18 118 -20 230 -14 178 9 332 42 451 97 28 13
83 39 123 57 41 19 97 51 125 72 29 21 68 48 87 62 59 39 149 126 206 198 30
37 54 70 54 74 0 4 20 37 44 73 83 127 137 294 138 431 1 154 -25 323 -57 374
-7 12 -16 37 -19 57 -4 20 -15 44 -26 54 -11 10 -24 32 -30 51 -6 18 -29 47
-51 65 -21 17 -39 39 -39 49 0 10 -20 33 -45 51 -24 19 -45 39 -45 44 0 6 -30
37 -66 70 -36 33 -79 72 -95 88 -16 15 -34 27 -38 27 -5 0 -31 18 -57 40 -27
22 -67 45 -89 51 -22 6 -47 17 -56 25 -14 13 -89 42 -164 64 -16 5 -82 18
-145 29 -135 24 -262 24 -383 -1z m246 -82 c-1 -16 4 -38 12 -50 21 -29 20
-33 -22 -60 -21 -14 -74 -59 -118 -102 -90 -86 -123 -104 -193 -104 -39 0 -58
6 -91 30 -23 17 -55 33 -70 36 -35 7 -98 -11 -126 -37 -38 -34 -76 -34 -112 0
-18 16 -33 36 -33 44 0 18 108 112 140 122 14 4 48 20 77 36 61 35 136 63 253
94 65 17 109 23 185 21 l100 -1 -2 -29z m247 4 c36 -7 80 -18 98 -26 18 -8 41
-14 52 -14 11 0 24 -8 29 -19 6 -10 22 -22 36 -25 27 -7 33 -28 13 -43 -7 -5
-34 -17 -61 -27 -26 -10 -51 -25 -56 -35 -5 -9 -6 -44 -2 -78 10 -84 1 -103
-46 -103 -21 0 -51 -7 -67 -15 -15 -8 -37 -15 -48 -15 -44 0 -119 -33 -139
-62 l-21 -29 31 -64 c38 -78 38 -95 5 -126 -23 -22 -32 -24 -117 -22 -50 1
-120 10 -156 19 -87 21 -134 14 -178 -28 l-35 -33 7 -74 c6 -68 4 -76 -20
-111 -30 -43 -109 -90 -153 -90 -84 0 -187 98 -167 159 8 27 -53 78 -109 91
-78 17 -86 24 -86 76 0 35 8 57 30 91 41 60 39 96 -6 114 -33 12 -33 67 -1 96
12 11 34 35 50 53 23 27 32 31 58 26 16 -3 46 -18 65 -33 47 -35 102 -35 173
0 66 34 79 34 127 0 36 -26 46 -28 129 -27 113 1 142 14 227 99 37 37 88 81
115 99 46 30 48 34 47 76 0 25 -4 53 -8 63 -7 14 0 21 35 37 24 11 53 18 64
16 11 -3 49 -10 85 -16z m440 -233 c70 -54 130 -111 130 -124 0 -4 28 -37 61
-73 68 -71 69 -89 9 -101 -37 -8 -60 -32 -60 -61 0 -36 -53 -55 -178 -62 -116
-7 -189 -27 -207 -57 -13 -20 -5 -112 11 -137 26 -39 11 -67 -50 -96 -59 -28
-224 -52 -274 -40 -43 11 -99 42 -105 59 -4 8 -15 15 -26 15 -11 0 -24 6 -28
14 -11 18 -78 46 -113 46 -82 0 -140 -63 -140 -153 0 -52 -22 -130 -43 -155
-25 -31 -159 -78 -237 -84 -94 -8 -123 5 -198 86 -15 15 -55 50 -89 78 -46 37
-62 58 -66 81 -16 103 -43 154 -85 162 -69 14 -118 27 -126 35 -9 9 36 125 79
203 51 91 106 88 59 -4 -26 -52 -26 -56 -15 -114 7 -33 23 -76 34 -96 18 -29
26 -35 42 -28 59 23 100 -1 130 -76 29 -72 38 -85 89 -123 70 -53 113 -59 206
-27 86 29 115 53 142 115 15 35 18 57 13 105 -6 51 -4 63 12 76 29 26 87 32
130 14 21 -9 48 -13 61 -10 13 3 44 -2 68 -11 36 -14 52 -15 82 -6 20 6 46 14
57 17 11 2 37 20 58 38 34 31 37 38 37 89 0 42 -5 59 -20 73 -41 37 -17 78 56
96 24 6 47 15 50 20 3 5 29 9 59 9 72 0 103 14 119 51 11 25 11 37 0 67 -31
88 -15 118 69 128 23 3 43 7 45 9 2 2 23 3 46 3 34 0 52 -9 106 -51z m347
-427 c31 -35 39 -78 19 -98 -20 -20 -147 -18 -190 4 -16 8 -38 12 -48 8 -28
-9 -50 -59 -42 -99 5 -31 3 -35 -33 -58 -51 -32 -59 -44 -68 -94 -7 -46 -19
-60 -38 -45 -7 5 -40 20 -74 32 -35 13 -63 27 -63 32 0 5 7 19 15 32 19 29 22
84 7 113 -17 31 -15 78 4 94 9 7 42 17 73 21 287 38 263 30 314 102 l17 25 43
-22 c23 -12 52 -33 64 -47z m56 -179 c7 -7 1 -23 -19 -52 -49 -71 -54 -82 -48
-117 7 -39 -9 -55 -69 -72 -42 -12 -77 -57 -77 -101 0 -14 16 -46 36 -72 l36
-46 -19 -33 c-10 -18 -43 -52 -73 -77 -30 -24 -74 -67 -97 -96 -76 -92 -132
-99 -173 -21 -34 63 -63 86 -110 86 -22 0 -60 11 -89 26 -56 29 -102 28 -141
-4 -19 -15 -22 -30 -25 -102 -4 -126 -9 -133 -107 -145 -74 -9 -83 -3 -58 44
15 30 19 55 16 115 -1 44 3 92 11 114 7 20 13 56 13 80 0 36 -7 51 -40 91 -22
26 -40 55 -40 65 0 16 7 17 73 11 39 -4 85 -14 101 -22 73 -38 103 -43 156
-27 37 11 58 25 82 55 53 66 117 89 138 50 7 -14 6 -44 -5 -103 -20 -111 -19
-128 9 -160 29 -32 82 -44 130 -28 29 9 40 22 61 67 31 64 28 104 -11 192 -27
61 -25 126 6 136 31 10 60 51 69 99 5 27 14 52 20 56 18 11 232 3 244 -9z
m-2126 -52 c31 -10 47 -37 74 -128 7 -24 18 -48 24 -52 5 -4 43 -38 84 -74 41
-37 85 -74 98 -82 13 -8 23 -21 23 -28 0 -22 77 -48 152 -51 108 -4 224 34
290 95 l50 46 13 95 c14 110 30 149 59 151 67 5 91 -4 148 -54 59 -53 74 -87
38 -87 -23 0 -90 -66 -90 -89 0 -9 27 -45 60 -81 63 -68 73 -97 45 -134 -11
-14 -15 -46 -15 -107 0 -67 -3 -88 -14 -92 -24 -10 -115 9 -135 27 -29 26 -76
36 -118 24 -46 -12 -62 -33 -63 -76 0 -48 -41 -86 -82 -78 -44 9 -58 24 -58
63 0 45 -23 98 -52 117 -18 12 -36 13 -83 7 -54 -8 -63 -12 -100 -55 -35 -39
-47 -46 -78 -46 -42 0 -58 21 -39 51 18 29 14 55 -13 87 -20 24 -25 41 -25 85
0 68 -20 87 -92 87 -46 0 -48 1 -69 43 -31 61 -48 77 -84 77 -61 0 -70 16 -69
126 1 93 3 99 28 121 30 26 49 28 93 12z m1440 -154 c6 -18 -19 -50 -60 -75
-25 -16 -34 -16 -72 -5 -55 17 -105 43 -105 55 0 5 15 11 33 14 17 2 55 9 82
14 80 15 115 14 122 -3z m697 -86 c12 -27 10 -40 -9 -100 -12 -39 -31 -83 -43
-99 -12 -16 -22 -38 -22 -48 0 -11 -9 -31 -20 -45 -11 -14 -20 -29 -20 -34 0
-5 -13 -27 -30 -49 -16 -21 -30 -45 -30 -52 0 -7 -11 -18 -25 -24 -13 -6 -27
-19 -30 -30 -4 -10 -10 -18 -13 -18 -4 0 -37 -29 -73 -64 l-66 -64 -80 -3
c-71 -4 -86 -8 -140 -41 -34 -21 -68 -38 -76 -38 -8 0 -35 16 -62 36 -43 33
-51 36 -98 31 -59 -5 -82 -27 -92 -86 -5 -32 -12 -42 -35 -49 -15 -6 -39 -24
-51 -42 -13 -17 -47 -49 -76 -72 -50 -38 -56 -40 -109 -36 -49 4 -60 9 -102
51 -82 80 -199 109 -289 72 -55 -23 -103 -19 -169 16 -98 52 -154 91 -154 109
0 15 71 82 114 107 23 14 85 17 102 5 6 -4 27 -41 46 -82 19 -41 41 -80 49
-86 8 -6 37 -14 65 -18 43 -5 53 -3 69 14 26 28 76 35 115 15 37 -19 98 -13
130 13 11 10 23 37 27 66 7 44 12 51 38 58 31 9 98 2 126 -13 9 -4 31 -4 50 1
123 32 120 30 135 65 7 19 17 67 20 107 8 85 25 112 64 103 14 -4 33 -15 43
-26 11 -12 31 -19 53 -19 50 0 101 -24 109 -52 22 -69 81 -107 144 -93 31 6
111 80 111 101 0 7 33 38 73 69 39 32 74 61 75 66 2 5 17 22 33 38 25 26 28
33 19 56 -5 14 -10 36 -10 48 0 13 -9 30 -21 40 -14 13 -19 27 -17 50 2 26 9
33 38 43 32 11 91 30 98 33 2 1 9 -13 16 -30z m-412 -6 c27 -31 39 -62 41
-105 1 -33 -4 -45 -26 -64 -32 -27 -63 -30 -91 -9 -15 12 -17 22 -12 62 16
113 51 158 88 116z m-1752 -118 c13 -34 58 -75 83 -75 32 0 57 -29 57 -67 0
-19 7 -41 15 -50 23 -22 -1 -53 -54 -71 -36 -12 -47 -12 -67 -1 -25 13 -84
110 -84 138 0 9 -7 36 -16 60 -21 61 -12 91 26 91 23 0 33 -6 40 -25z m889
-329 c7 -8 23 -17 36 -20 13 -3 29 -15 35 -26 8 -16 6 -22 -15 -36 -20 -13
-25 -25 -25 -56 0 -54 -56 -109 -83 -82 -4 4 -30 15 -59 25 l-52 17 -38 -30
c-50 -39 -87 -36 -110 11 -23 46 -14 65 26 56 58 -13 115 -15 121 -5 3 5 15
10 26 10 31 0 62 38 54 67 -8 34 3 63 28 73 32 13 43 12 56 -4z m530 -300 c39
-40 38 -67 -4 -79 -17 -5 -38 -14 -49 -19 -28 -15 -120 -37 -128 -32 -15 10
-8 24 21 39 28 14 41 37 47 80 1 11 3 23 3 27 1 7 26 15 57 17 11 0 35 -14 53
-33z"/>
<path d="M44094 86449 c-17 -5 -37 -16 -45 -25 -11 -14 -9 -20 21 -45 19 -16
45 -29 57 -29 12 0 25 -4 28 -10 3 -5 16 -10 28 -10 28 0 107 -29 129 -48 16
-13 61 -41 103 -63 12 -6 25 -20 30 -31 16 -34 39 -43 82 -32 44 10 56 38 22
49 -16 5 -26 2 -36 -11 -7 -9 -16 -15 -19 -11 -4 4 -1 13 5 21 22 27 5 39
-134 90 -39 14 -76 26 -83 26 -20 0 -122 84 -122 101 0 15 -19 40 -29 38 -4 0
-20 -5 -37 -10z"/>
<path d="M44110 84063 c-36 -5 -70 -28 -70 -48 0 -17 -101 -219 -114 -227 -18
-13 -23 -9 -48 30 -24 39 -32 56 -70 162 l-24 65 -59 6 c-33 4 -65 5 -72 2
-23 -9 -14 -29 19 -44 24 -11 32 -21 34 -44 4 -57 -19 -287 -30 -296 -6 -6
-20 -16 -30 -23 -32 -22 -9 -34 64 -34 48 0 73 4 81 14 10 12 6 17 -20 27 -31
11 -31 12 -31 80 0 70 11 107 33 107 13 0 57 -85 57 -109 0 -22 54 -111 68
-111 19 0 60 51 68 85 9 44 51 122 67 128 11 4 16 -5 19 -36 8 -73 -2 -117
-28 -129 -13 -6 -24 -19 -24 -30 0 -15 8 -18 48 -18 119 0 155 26 91 64 -26
15 -30 22 -24 45 4 14 9 80 10 146 l3 120 33 23 c45 31 45 32 29 42 -15 10
-19 10 -80 3z"/>
<path d="M42788 83999 c-20 -11 -24 -49 -7 -66 7 -7 12 -61 12 -146 1 -132 0
-136 -27 -171 -20 -26 -35 -36 -55 -36 -52 0 -56 16 -56 218 0 202 -3 212 -58
198 -36 -9 -43 -39 -16 -75 20 -28 21 -34 10 -71 -7 -24 -11 -83 -10 -138 4
-135 -20 -171 -90 -136 l-33 17 6 101 7 101 -30 28 c-38 35 -113 38 -177 5
-37 -18 -44 -26 -44 -52 0 -16 9 -39 20 -51 l20 -22 -20 -25 c-14 -19 -20 -41
-20 -77 0 -76 17 -84 162 -75 62 4 127 7 143 6 153 -4 328 10 349 27 13 11 12
17 -6 53 -20 38 -21 50 -14 219 l6 179 -27 0 c-16 0 -36 -5 -45 -11z"/>
<path d="M41867 83948 c-12 -10 -15 -23 -10 -55 7 -51 19 -53 58 -13 34 35 39
36 63 12 14 -14 17 -32 16 -82 -1 -36 -2 -99 -3 -140 -2 -73 -2 -76 -36 -100
-19 -14 -35 -31 -35 -37 0 -19 44 -26 117 -20 72 5 100 22 69 41 -56 33 -58
40 -52 154 8 157 21 202 59 202 29 0 43 -10 51 -37 15 -48 48 -18 41 37 -2 14
-4 31 -4 38 -1 9 -40 12 -159 12 -111 0 -163 -4 -175 -12z"/>
<path d="M43035 83879 c-11 -6 -33 -32 -48 -59 -66 -118 -10 -260 103 -260 66
0 137 47 111 73 -9 9 -16 9 -31 -1 -26 -16 -60 -15 -104 3 -26 11 -36 21 -34
33 5 25 66 52 119 52 51 0 72 16 83 63 7 31 -6 64 -38 89 -24 20 -126 24 -161
7z"/>
<path d="M44280 74764 c-25 -8 -58 -21 -75 -28 -16 -8 -55 -24 -85 -35 -57
-22 -67 -28 -169 -99 -57 -40 -211 -203 -211 -224 0 -5 -13 -29 -30 -53 -16
-24 -30 -56 -30 -72 0 -15 -7 -41 -15 -57 -30 -57 -37 -122 -41 -346 -1 -124
-6 -255 -9 -292 -4 -45 -1 -82 8 -115 10 -33 13 -84 11 -166 -2 -64 1 -148 6
-185 14 -86 20 -242 18 -412 -1 -74 -2 -151 -1 -170 1 -33 14 -771 15 -815 0
-11 -3 -72 -6 -135 -3 -63 -5 -155 -4 -205 2 -206 -3 -417 -12 -525 -6 -63
-13 -155 -15 -205 -3 -49 -10 -169 -16 -265 -12 -199 -6 -637 11 -720 16 -77
77 -162 172 -240 44 -36 88 -68 98 -72 18 -7 51 13 96 57 34 33 165 149 234
208 107 91 340 336 340 359 0 11 -36 46 -120 113 -114 92 -170 153 -171 188
-1 18 -3 48 -5 67 -10 80 -5 890 6 970 6 47 12 110 14 140 1 31 6 62 11 70 5
8 9 204 10 435 1 419 1 422 24 453 12 17 33 37 46 44 13 7 62 39 109 71 97 67
227 123 303 133 55 7 146 -18 208 -56 72 -45 174 -188 208 -293 39 -118 25
-200 -50 -298 -67 -86 -120 -161 -151 -210 -18 -30 -56 -80 -85 -111 -63 -70
-106 -122 -131 -163 -22 -35 -53 -71 -190 -219 -103 -110 -120 -136 -111 -165
7 -22 142 -162 178 -184 15 -10 27 -23 27 -30 0 -8 11 -24 25 -37 25 -24 65
-96 65 -119 0 -6 9 -29 20 -49 33 -62 91 -233 106 -315 8 -43 20 -93 28 -110
7 -18 19 -57 26 -87 13 -55 49 -153 74 -200 7 -14 16 -38 20 -53 9 -40 83
-158 125 -204 66 -69 98 -89 192 -123 55 -20 117 -50 149 -75 97 -72 136 -95
159 -95 32 0 156 104 341 287 85 84 166 160 180 170 43 29 150 136 150 150 0
7 -19 22 -42 34 -24 12 -70 42 -103 67 -33 25 -105 66 -160 90 -111 50 -205
108 -220 138 -5 11 -20 31 -33 44 -27 29 -102 174 -102 199 -1 9 -9 34 -20 56
-11 22 -19 46 -20 54 0 16 -37 134 -56 179 -8 18 -14 40 -14 50 0 19 -65 231
-86 279 -8 17 -14 36 -14 43 0 7 -6 26 -14 43 -49 116 -65 147 -98 191 -21 28
-38 53 -38 57 0 3 -17 18 -37 31 -63 42 -163 142 -163 163 0 12 26 42 66 75
36 30 78 68 92 84 15 16 59 63 98 105 39 42 77 87 84 101 15 28 115 156 129
165 16 9 98 137 115 180 10 22 27 51 40 65 13 14 46 59 73 102 57 87 68 136
52 223 -10 52 -69 192 -87 204 -4 3 -19 22 -32 41 -13 19 -35 48 -49 63 -23
26 -42 39 -129 86 -34 18 -146 24 -207 10 -56 -13 -184 -73 -261 -122 -104
-65 -119 -76 -134 -90 -8 -7 -44 -33 -80 -57 -36 -24 -76 -54 -90 -66 -14 -12
-68 -50 -120 -85 -112 -76 -148 -103 -247 -187 -49 -42 -85 -65 -108 -69 l-35
-6 3 164 c2 90 0 173 -4 185 -4 12 -10 142 -13 290 -4 148 -13 340 -21 428 -9
87 -13 161 -11 164 3 2 -1 20 -9 39 -9 21 -14 68 -14 123 0 50 -2 93 -4 98 -3
4 -8 77 -11 162 -8 240 30 377 133 474 42 40 41 66 -1 65 -18 -1 -53 -7 -78
-15z"/>
<path d="M35950 74038 c-116 -14 -245 -46 -360 -90 -383 -146 -659 -287 -749
-382 -87 -90 -173 -190 -196 -226 -12 -19 -32 -44 -45 -55 -26 -23 -90 -117
-90 -132 0 -6 -7 -17 -16 -24 -21 -17 -101 -136 -142 -211 -17 -33 -41 -71
-52 -85 -11 -14 -20 -31 -20 -37 0 -7 -12 -28 -26 -47 -34 -45 -109 -207 -118
-253 -4 -20 -16 -58 -28 -84 -25 -56 -36 -110 -46 -217 -4 -44 -13 -90 -20
-103 -7 -12 -12 -41 -10 -65 3 -46 -16 -294 -34 -427 -9 -71 -12 -295 -6 -590
1 -36 0 -132 -2 -215 -1 -82 2 -184 7 -225 10 -74 5 -194 -19 -460 -6 -69 -14
-129 -18 -135 -4 -5 -11 -25 -15 -44 -12 -58 -61 -155 -93 -184 -16 -16 -96
-62 -177 -103 -80 -40 -159 -83 -175 -94 -15 -11 -30 -20 -33 -20 -9 0 -110
-70 -148 -103 -46 -39 -136 -109 -159 -122 -10 -5 -46 -35 -80 -65 -35 -30
-88 -77 -119 -104 -96 -83 -202 -199 -222 -242 -11 -22 -33 -54 -49 -69 -17
-16 -30 -33 -30 -39 0 -5 -10 -20 -21 -32 -31 -33 -100 -136 -209 -314 -35
-58 -75 -189 -124 -405 -21 -94 8 -395 44 -463 11 -20 20 -43 20 -50 0 -20 78
-172 105 -204 14 -16 25 -33 25 -38 0 -4 23 -29 51 -56 28 -27 64 -67 80 -88
16 -22 42 -49 58 -60 15 -12 72 -57 126 -101 122 -99 193 -152 224 -165 13 -6
35 -19 50 -29 78 -54 445 -203 546 -222 22 -4 76 -17 120 -29 68 -18 290 -43
375 -42 50 1 286 22 335 31 192 32 380 90 540 166 28 13 61 29 75 35 14 5 45
22 70 38 25 15 60 36 79 47 92 54 290 214 385 311 33 33 154 186 200 252 22
32 56 80 74 105 17 25 32 52 32 61 0 8 4 18 10 21 10 6 84 156 95 193 12 41
-25 24 -102 -48 -72 -67 -195 -161 -269 -206 -19 -11 -43 -30 -55 -42 -11 -12
-28 -22 -39 -22 -10 0 -21 -4 -25 -9 -9 -15 -296 -168 -360 -192 -11 -4 -45
-18 -75 -32 -30 -13 -73 -30 -95 -37 -22 -7 -44 -16 -50 -20 -20 -14 -196 -71
-262 -85 -37 -7 -81 -18 -98 -23 -45 -15 -117 -31 -245 -54 -94 -17 -163 -21
-375 -23 -183 -1 -270 2 -295 10 -19 7 -66 15 -105 19 -66 7 -119 18 -325 67
-147 35 -383 111 -405 130 -5 5 -16 9 -25 9 -9 0 -64 31 -122 70 -118 78 -263
215 -277 263 -6 18 -19 58 -30 90 -39 111 -13 353 55 505 7 18 14 38 14 44 0
7 9 21 19 32 11 12 34 49 51 84 58 116 149 245 225 315 40 37 78 67 84 67 6 0
18 11 27 25 9 14 28 31 41 38 13 7 51 38 86 70 117 108 288 219 501 325 171
85 260 116 376 133 30 4 76 11 102 15 48 7 202 -13 308 -40 89 -23 254 -56
277 -56 26 0 177 -49 293 -96 102 -40 213 -67 296 -70 34 -1 71 -7 83 -13 14
-8 77 -10 203 -6 166 4 192 8 278 35 52 16 127 48 165 71 39 22 79 45 90 50
26 12 100 60 212 137 99 69 346 304 358 342 4 12 23 43 42 68 35 46 113 197
113 219 0 6 15 58 34 115 21 63 39 142 45 203 14 121 10 330 -6 346 -12 12
-17 -1 -48 -136 -37 -162 -46 -193 -80 -273 -32 -76 -89 -176 -124 -217 -14
-17 -41 -50 -60 -73 -43 -53 -128 -111 -211 -144 -131 -53 -209 -63 -349 -48
-195 20 -247 32 -476 105 -38 12 -95 29 -125 37 -30 9 -100 29 -155 46 -55 17
-118 33 -140 37 -22 3 -58 12 -80 20 -153 50 -612 36 -722 -23 -46 -25 -87 -9
-55 22 187 182 257 264 311 373 19 37 53 93 77 123 84 110 106 266 103 705 -4
604 -4 774 3 957 3 103 9 192 13 198 3 5 13 83 20 173 31 346 39 406 79 567
32 128 64 208 133 330 51 91 67 106 158 139 47 17 104 40 128 52 89 46 272
109 349 120 115 17 199 8 251 -27 121 -80 156 -172 157 -420 0 -96 34 -225 77
-300 44 -76 89 -100 206 -109 43 -3 88 -10 100 -14 45 -16 158 5 242 44 92 44
215 154 246 220 11 22 31 58 44 80 14 22 32 65 41 95 8 30 22 72 31 92 9 20
13 47 10 59 -3 12 -1 46 5 76 11 53 7 90 -22 203 -13 49 -76 153 -129 212 -49
55 -137 103 -262 143 -75 23 -99 26 -283 29 -111 1 -235 -1 -276 -6z"/>
<path d="M33322 73969 c-110 -13 -183 -35 -285 -88 -134 -68 -307 -222 -397
-351 -52 -75 -107 -152 -129 -180 -10 -14 -33 -52 -51 -85 -18 -33 -38 -67
-46 -76 -8 -9 -22 -38 -31 -65 -9 -27 -29 -70 -45 -95 -15 -25 -28 -52 -28
-59 0 -7 -13 -36 -29 -64 -16 -28 -36 -76 -45 -106 -8 -30 -26 -86 -39 -125
-31 -88 -47 -191 -47 -298 1 -74 4 -87 33 -136 41 -69 70 -90 148 -107 88 -18
116 -17 195 7 148 46 466 221 443 244 -6 6 -118 -26 -170 -49 -28 -11 -45 -13
-70 -6 -19 6 -53 10 -77 10 -31 0 -55 8 -85 29 -65 45 -75 61 -88 140 -23 154
17 326 132 566 37 78 46 88 99 114 127 63 190 81 275 82 46 0 99 -4 117 -10
29 -10 123 -34 238 -61 19 -4 49 -13 65 -19 49 -17 194 -40 290 -46 284 -19
287 -18 397 91 45 43 117 120 161 169 44 50 146 159 226 243 80 84 146 158
146 165 0 12 -5 12 -107 1 -67 -8 -290 11 -363 31 -27 7 -81 21 -120 29 -111
25 -158 38 -192 53 -33 14 -268 48 -383 56 -36 2 -98 0 -138 -4z"/>
<path d="M48148 73442 c-18 -16 -58 -45 -89 -64 -31 -20 -79 -56 -108 -82 -28
-25 -58 -46 -65 -46 -7 0 -21 -10 -32 -21 -10 -12 -41 -36 -69 -54 -27 -18
-76 -55 -108 -84 -32 -28 -63 -51 -69 -51 -6 0 -34 -24 -62 -52 -107 -109
-563 -549 -584 -564 -12 -8 -22 -21 -22 -27 0 -7 -12 -34 -26 -62 -38 -71 -51
-150 -53 -324 -1 -85 -4 -157 -5 -160 -2 -3 -7 -80 -11 -170 -3 -90 -11 -175
-17 -190 -5 -14 -14 -51 -19 -81 -4 -30 -13 -82 -18 -115 -6 -33 -10 -145 -9
-250 1 -313 -24 -623 -53 -641 -5 -3 -9 -13 -9 -22 0 -21 -34 -134 -71 -237
-15 -44 -33 -98 -38 -120 -24 -99 -91 -265 -127 -315 -72 -102 -144 -184 -199
-227 -52 -41 -69 -73 -46 -87 15 -10 163 52 237 98 38 24 101 64 139 87 39 24
95 68 125 99 30 31 68 63 83 73 27 17 29 17 60 -5 18 -12 34 -25 37 -28 3 -3
23 -18 45 -35 22 -16 54 -43 70 -61 34 -36 126 -77 212 -94 32 -6 75 -16 96
-21 56 -15 260 -1 327 22 30 11 65 19 77 19 35 0 160 67 233 125 61 49 316
309 376 385 15 19 59 67 98 107 38 40 67 75 64 78 -3 4 -35 -4 -70 -18 -208
-79 -372 -95 -548 -54 -100 23 -249 119 -307 197 -104 143 -154 236 -152 285
1 16 -6 65 -15 108 -9 43 -14 87 -10 99 3 11 31 46 61 77 30 31 79 88 108 126
28 39 81 97 116 129 169 157 564 545 583 572 11 18 49 65 83 105 132 156 172
212 206 289 11 25 35 68 53 96 19 28 34 55 34 60 0 5 12 31 26 58 20 38 28 72
35 149 10 123 10 265 -2 331 -10 56 -73 202 -100 232 -11 11 -19 26 -19 33 0
17 -107 134 -178 194 -63 54 -215 157 -231 157 -6 0 -25 -13 -43 -28z m-526
-640 c108 -62 237 -178 298 -268 17 -24 35 -44 40 -44 6 0 10 -9 10 -19 0 -11
11 -32 24 -48 42 -51 67 -123 77 -222 5 -52 12 -103 15 -114 5 -17 0 -49 -38
-217 -5 -25 -23 -66 -39 -93 -16 -26 -29 -51 -29 -55 0 -5 -16 -31 -35 -58
-19 -27 -35 -54 -35 -60 0 -12 -29 -53 -97 -136 -35 -44 -256 -243 -330 -297
-17 -13 -36 -20 -42 -17 -14 9 -14 41 -1 66 9 17 11 211 7 640 0 59 14 145 44
275 20 86 23 160 13 355 -8 170 -8 166 3 244 7 47 16 73 28 82 25 19 33 18 87
-14z"/>
<path d="M51098 73422 c-27 -38 -240 -219 -310 -264 -103 -66 -204 -114 -266
-127 -137 -28 -167 -65 -176 -218 -5 -86 -4 -104 10 -118 11 -11 24 -14 38
-10 12 4 60 10 108 12 125 7 185 -12 254 -82 30 -30 54 -62 54 -72 0 -10 6
-28 14 -39 8 -11 24 -49 36 -84 19 -56 22 -91 25 -275 2 -132 -1 -230 -9 -265
-6 -30 -10 -84 -10 -120 1 -36 -4 -162 -12 -280 -7 -118 -12 -264 -11 -325 2
-60 0 -122 -5 -136 -5 -15 -5 -36 0 -50 6 -15 4 -72 -4 -154 -8 -71 -16 -175
-19 -230 -3 -55 -12 -154 -21 -220 -20 -155 -22 -157 -147 -149 -51 3 -114 13
-142 21 -45 13 -155 61 -195 84 -8 5 -28 14 -43 20 -38 15 -137 135 -175 212
-18 34 -36 93 -42 131 -6 38 -15 77 -21 88 -5 10 -10 35 -9 56 0 20 -3 75 -8
122 -16 170 2 596 35 825 10 71 17 211 19 395 3 157 6 341 8 410 1 70 -2 131
-7 138 -5 7 -7 34 -4 60 3 27 0 59 -7 77 -7 17 -16 64 -20 105 -12 134 -63
271 -130 352 -18 21 -52 45 -84 59 -48 19 -60 21 -101 11 -79 -19 -159 -71
-284 -187 -154 -142 -403 -389 -424 -421 -24 -37 -5 -46 46 -24 50 23 61 24
112 9 75 -23 179 -157 179 -232 0 -10 9 -37 19 -60 12 -27 23 -87 30 -172 7
-71 14 -152 16 -180 7 -75 8 -391 2 -402 -3 -5 -11 -88 -16 -184 -13 -211 -29
-354 -43 -393 -12 -30 -13 -40 -24 -381 -11 -327 -7 -523 13 -575 6 -14 11
-43 11 -65 2 -56 47 -192 80 -240 15 -21 42 -53 61 -70 19 -16 44 -40 55 -51
34 -36 126 -89 208 -122 109 -44 290 -60 404 -36 80 16 137 40 189 80 17 12
44 25 60 29 28 6 27 3 -25 -45 -66 -60 -209 -158 -259 -176 -25 -9 -66 -11
-136 -7 -118 7 -329 -11 -400 -34 -47 -15 -110 -44 -198 -91 -69 -37 -167
-133 -226 -221 -70 -107 -107 -212 -120 -346 -13 -126 -5 -162 59 -295 4 -8
36 -38 71 -67 52 -42 83 -58 162 -84 88 -27 113 -31 220 -32 172 -1 337 23
375 55 10 8 28 19 42 26 14 7 32 16 40 22 35 23 110 48 175 60 64 12 244 49
340 71 248 56 627 81 760 51 28 -6 79 -16 115 -22 126 -22 271 -79 355 -140
22 -16 54 -37 70 -46 17 -9 32 -20 35 -24 13 -18 45 -27 67 -19 13 5 30 6 38
3 13 -5 14 10 10 112 -3 66 -10 146 -16 179 -5 33 -14 88 -19 123 -27 174
-181 332 -380 388 -104 30 -300 26 -465 -9 -207 -43 -257 -55 -305 -75 -68
-27 -246 -112 -325 -154 -38 -21 -133 -70 -210 -108 -77 -39 -151 -77 -165
-85 -32 -18 -244 -119 -301 -143 -132 -57 -337 -52 -398 8 -45 45 -61 90 -61
169 0 67 3 76 51 161 43 75 63 99 118 140 108 81 146 95 391 145 93 19 238 75
285 110 17 12 44 29 60 38 17 8 46 30 65 47 40 36 96 64 220 109 314 112 452
172 527 227 149 111 189 157 269 315 71 138 87 221 99 489 3 63 10 165 16 225
6 61 11 160 10 220 0 61 7 166 16 235 9 69 17 204 18 300 5 411 15 729 25 785
5 33 14 89 19 125 15 103 40 188 67 227 18 27 21 40 14 53 -14 26 -13 30 11
30 11 0 38 18 60 40 39 39 39 40 15 40 -40 0 -61 64 -36 110 9 16 4 20 -44 34
-30 9 -63 16 -75 16 -20 0 -189 164 -228 220 -9 14 -42 54 -72 90 -31 36 -67
86 -81 113 -26 51 -41 58 -62 29z"/>
<path d="M38515 73221 c-17 -10 -68 -58 -113 -107 -45 -49 -102 -102 -126
-119 -23 -16 -114 -106 -201 -200 -87 -93 -202 -213 -254 -267 -53 -53 -109
-111 -126 -130 -16 -18 -56 -62 -88 -98 -64 -72 -97 -127 -97 -163 0 -12 -4
-27 -8 -32 -5 -6 -17 -32 -27 -60 -19 -51 -21 -162 -10 -550 2 -60 6 -219 9
-353 3 -134 7 -251 11 -261 5 -17 14 -509 16 -923 0 -113 -3 -213 -8 -221 -16
-28 -124 -115 -151 -122 -15 -4 -34 -13 -42 -22 -8 -8 -30 -23 -47 -34 -27
-15 -33 -25 -33 -54 0 -30 6 -38 38 -57 21 -13 47 -28 57 -35 54 -33 214 -105
278 -124 40 -12 97 -30 127 -41 30 -11 71 -23 90 -28 19 -4 62 -18 95 -30 100
-35 179 -60 197 -60 9 0 57 -13 106 -30 50 -16 101 -30 115 -30 59 0 105 33
255 181 42 41 121 115 176 165 54 49 136 132 183 184 90 101 132 145 269 280
71 71 144 159 144 175 0 2 25 43 55 91 30 49 55 92 55 96 0 4 12 32 26 61 51
104 57 246 40 1027 -2 113 -4 216 -3 230 5 156 -10 650 -22 714 -6 33 -11 91
-11 129 l0 69 61 66 c62 68 124 164 159 247 23 53 28 150 8 142 -7 -3 -51 -21
-98 -40 -73 -30 -98 -36 -175 -38 -81 -2 -132 2 -204 17 -13 3 -46 26 -75 52
-51 48 -137 118 -167 137 -9 6 -36 23 -60 39 -103 70 -297 146 -370 146 -13 0
-38 -8 -54 -19z m297 -558 c20 -18 23 -56 7 -122 -6 -29 -6 -54 0 -75 16 -48
43 -261 46 -361 6 -167 18 -290 29 -304 6 -8 12 -33 13 -55 5 -98 15 -194 24
-226 5 -19 12 -87 15 -150 10 -180 10 -631 1 -670 -5 -19 -16 -91 -26 -160
-18 -128 -58 -251 -108 -332 -13 -21 -23 -44 -23 -52 0 -9 -19 -38 -42 -65
-24 -28 -54 -64 -67 -81 -35 -46 -187 -144 -256 -165 -33 -10 -71 -24 -85 -31
-40 -22 -172 -66 -212 -71 -34 -5 -38 -3 -44 22 -3 14 -4 40 -1 58 3 18 1 97
-4 177 -5 80 -11 231 -14 335 -2 105 -8 206 -12 225 -4 19 -8 76 -10 125 -1
50 -7 149 -13 220 -6 72 -12 198 -14 281 -2 83 -9 160 -15 171 -7 13 -7 31 -1
52 5 19 5 45 -2 67 -10 39 -29 233 -31 325 -1 47 5 66 42 134 55 99 186 261
317 390 135 133 322 282 400 318 17 8 35 20 38 26 10 16 26 14 48 -6z"/>
<path d="M41623 73148 c-89 -48 -161 -107 -263 -213 -58 -60 -146 -152 -197
-205 -196 -203 -213 -223 -213 -240 0 -32 20 -33 61 -5 35 25 44 27 90 21 60
-8 123 -55 147 -109 18 -39 34 -169 32 -257 0 -36 6 -83 14 -105 10 -25 15
-73 15 -130 -1 -49 4 -148 10 -220 7 -71 14 -195 16 -275 2 -80 6 -199 9 -265
10 -267 8 -500 -4 -530 -7 -16 -17 -52 -21 -80 -17 -108 -29 -152 -53 -202
-14 -29 -26 -59 -26 -67 0 -8 -12 -43 -26 -78 -23 -58 -31 -74 -61 -133 -5
-11 -21 -42 -34 -70 -29 -60 -50 -67 -87 -27 -55 58 -122 234 -139 362 -3 25
-10 54 -16 65 -11 20 -18 331 -17 715 0 107 0 211 -1 230 -11 358 -24 624 -33
655 -3 11 -8 115 -11 230 -10 420 -48 688 -116 814 -10 19 -19 41 -19 47 0 14
-43 54 -59 54 -18 0 -69 -40 -120 -94 -25 -27 -135 -137 -244 -245 -248 -246
-301 -316 -252 -335 8 -3 20 -16 25 -28 6 -13 14 -30 19 -38 52 -87 81 -189
81 -288 0 -24 5 -52 11 -63 6 -11 12 -42 15 -67 2 -26 9 -85 15 -132 6 -47 14
-130 18 -185 4 -55 10 -107 15 -116 7 -17 10 -67 20 -347 3 -90 10 -180 15
-200 6 -20 9 -73 7 -117 -2 -44 -7 -170 -10 -280 -4 -110 -11 -238 -16 -285
-11 -98 -15 -355 -7 -450 8 -93 33 -244 45 -266 6 -11 13 -41 17 -69 17 -113
127 -261 211 -284 63 -17 170 28 250 106 126 123 165 153 201 153 20 0 49 -10
71 -25 20 -14 42 -25 49 -25 7 0 54 -34 105 -75 51 -40 107 -80 123 -88 129
-61 195 -77 307 -77 l66 0 149 142 c81 79 175 168 207 198 33 30 78 75 100
100 23 25 77 81 121 125 195 196 348 388 413 520 46 93 56 125 72 220 6 39 17
90 25 115 16 54 29 119 45 220 6 41 20 113 30 160 11 47 25 123 31 170 6 47
17 99 25 117 7 18 16 69 20 115 4 46 13 100 20 122 8 21 14 56 14 77 0 21 5
50 12 66 6 15 15 55 18 88 4 33 13 87 20 120 6 33 13 81 14 107 1 25 7 52 13
60 22 27 30 235 19 478 -10 207 -43 381 -93 487 -25 54 -96 123 -126 123 -9 0
-41 6 -71 14 -47 13 -62 13 -113 0 -63 -16 -201 -67 -248 -92 -16 -8 -46 -24
-65 -34 -63 -32 -110 -90 -181 -223 -39 -71 -80 -140 -92 -152 -30 -33 -47
-29 -47 11 0 18 -7 53 -15 76 -8 24 -13 52 -9 63 3 10 -1 36 -9 56 -9 20 -18
57 -22 82 -9 70 -80 183 -131 208 -56 28 -128 27 -181 -1z m673 -596 c22 -32
22 -39 18 -250 -5 -253 -7 -553 -6 -842 2 -282 -6 -601 -19 -880 -7 -129 -11
-248 -11 -264 2 -34 -18 -98 -48 -153 -11 -21 -20 -45 -20 -53 0 -9 -6 -24
-13 -35 -8 -11 -24 -52 -35 -91 -28 -91 -55 -104 -137 -64 -22 11 -44 19 -50
20 -9 0 -61 33 -182 115 -72 49 -155 92 -195 100 -38 8 -68 31 -68 54 0 8 11
26 24 40 13 15 34 46 47 71 13 25 29 52 37 61 15 19 52 86 82 149 12 25 33 62
47 82 37 55 83 200 94 298 5 47 13 110 18 140 4 30 6 61 4 68 -3 6 2 56 10
110 9 53 15 127 15 164 0 36 5 76 11 87 6 11 11 59 11 108 0 48 6 158 14 243
8 85 15 196 15 245 0 50 4 103 10 117 5 14 11 100 12 189 1 90 6 172 11 182
13 26 42 21 66 -13 13 -16 28 -30 35 -30 7 0 35 16 62 35 66 45 110 45 141 -3z"/>
<path d="M34005 73110 c-3 -6 -50 -47 -103 -91 -53 -45 -134 -116 -178 -158
-45 -42 -92 -85 -105 -96 -13 -12 -44 -43 -69 -70 -25 -28 -59 -62 -75 -76
-17 -14 -40 -41 -53 -60 -120 -180 -144 -230 -167 -356 -19 -98 -38 -131 -89
-154 -24 -10 -65 -42 -91 -71 -25 -29 -77 -86 -113 -127 -37 -40 -71 -81 -77
-90 -5 -10 -30 -35 -54 -57 -24 -21 -58 -58 -75 -80 -17 -23 -68 -87 -113
-142 -46 -55 -83 -103 -83 -106 0 -10 39 -6 45 4 4 6 30 23 58 38 45 23 64 27
137 27 82 0 89 -2 203 -54 65 -30 120 -58 123 -63 3 -4 6 -82 8 -172 l2 -163
-30 -21 c-17 -11 -43 -24 -58 -27 -17 -4 -62 -45 -119 -108 -51 -56 -110 -120
-131 -142 -21 -22 -60 -63 -86 -92 -26 -28 -98 -105 -160 -171 -62 -66 -108
-123 -103 -127 6 -3 30 1 54 9 68 23 167 38 206 31 61 -10 189 -55 201 -70 7
-8 50 -34 97 -57 46 -24 100 -51 119 -61 l35 -18 -4 -152 c-5 -164 -16 -238
-53 -360 -13 -43 -24 -82 -24 -87 0 -5 -22 -44 -50 -87 -48 -75 -61 -108 -40
-101 6 2 59 50 119 108 60 58 181 175 270 260 89 85 170 171 180 190 11 19 38
59 60 89 22 30 48 75 57 100 9 25 25 63 36 84 26 49 47 139 48 198 0 26 6 62
14 80 16 39 22 321 12 529 -15 285 -6 942 16 1220 7 80 13 174 14 210 1 36 9
101 18 145 8 44 15 96 16 116 0 19 4 39 10 45 5 5 19 43 29 83 11 40 24 78 30
84 6 6 11 18 11 27 0 22 37 88 76 137 19 23 34 46 34 52 0 14 -27 14 -35 1z"/>
</g>
</svg>
